<svg xmlns="http://www.w3.org/2000/svg" xmlns:xlink="http://www.w3.org/1999/xlink" contentStyleType="text/css" height="441px" preserveAspectRatio="none" style="width:405px;height:441px;background:#FFFFFF;" version="1.1" viewBox="0 0 405 441" width="405px" zoomAndPan="magnify"><defs/><g><rect fill="#FFFFFF" height="29.1328" style="stroke:#181818;stroke-width:1.0;" width="10" x="38.2949" y="213.0938"/><rect fill="#FFFFFF" height="29.1328" style="stroke:#181818;stroke-width:1.0;" width="10" x="38.2949" y="329.625"/><rect fill="#FFFFFF" height="29.1328" style="stroke:#181818;stroke-width:1.0;" width="10" x="190.9517" y="67.4297"/><rect fill="#FFFFFF" height="29.1328" style="stroke:#181818;stroke-width:1.0;" width="10" x="190.9517" y="125.6953"/><rect fill="#FFFFFF" height="87.3984" style="stroke:#181818;stroke-width:1.0;" width="10" x="190.9517" y="183.9609"/><rect fill="#FFFFFF" height="87.3984" style="stroke:#181818;stroke-width:1.0;" width="10" x="190.9517" y="300.4922"/><line style="stroke:#181818;stroke-width:0.5;stroke-dasharray:5.0,5.0;" x1="43" x2="43" y1="36.2969" y2="405.8906"/><line style="stroke:#181818;stroke-width:0.5;stroke-dasharray:5.0,5.0;" x1="195.2847" x2="195.2847" y1="36.2969" y2="405.8906"/><line style="stroke:#181818;stroke-width:0.5;stroke-dasharray:5.0,5.0;" x1="371.6919" x2="371.6919" y1="36.2969" y2="405.8906"/><rect fill="#E2E2F0" height="30.2969" rx="2.5" ry="2.5" style="stroke:#181818;stroke-width:0.5;" width="76.5898" x="5" y="5"/><text fill="#000000" font-family="sans-serif" font-size="14" lengthAdjust="spacing" textLength="62.5898" x="12" y="24.9951">Producer</text><rect fill="#E2E2F0" height="30.2969" rx="2.5" ry="2.5" style="stroke:#181818;stroke-width:0.5;" width="76.5898" x="5" y="404.8906"/><text fill="#000000" font-family="sans-serif" font-size="14" lengthAdjust="spacing" textLength="62.5898" x="12" y="424.8857">Producer</text><rect fill="#E2E2F0" height="30.2969" rx="2.5" ry="2.5" style="stroke:#181818;stroke-width:0.5;" width="53.334" x="169.2847" y="5"/><text fill="#000000" font-family="sans-serif" font-size="14" lengthAdjust="spacing" textLength="39.334" x="176.2847" y="24.9951">Proxy</text><rect fill="#E2E2F0" height="30.2969" rx="2.5" ry="2.5" style="stroke:#181818;stroke-width:0.5;" width="53.334" x="169.2847" y="404.8906"/><text fill="#000000" font-family="sans-serif" font-size="14" lengthAdjust="spacing" textLength="39.334" x="176.2847" y="424.8857">Proxy</text><rect fill="#E2E2F0" height="30.2969" rx="2.5" ry="2.5" style="stroke:#181818;stroke-width:0.5;" width="54.5303" x="344.6919" y="5"/><text fill="#000000" font-family="sans-serif" font-size="14" lengthAdjust="spacing" textLength="40.5303" x="351.6919" y="24.9951">Client</text><rect fill="#E2E2F0" height="30.2969" rx="2.5" ry="2.5" style="stroke:#181818;stroke-width:0.5;" width="54.5303" x="344.6919" y="404.8906"/><text fill="#000000" font-family="sans-serif" font-size="14" lengthAdjust="spacing" textLength="40.5303" x="351.6919" y="424.8857">Client</text><rect fill="#FFFFFF" height="29.1328" style="stroke:#181818;stroke-width:1.0;" width="10" x="38.2949" y="213.0938"/><rect fill="#FFFFFF" height="29.1328" style="stroke:#181818;stroke-width:1.0;" width="10" x="38.2949" y="329.625"/><rect fill="#FFFFFF" height="29.1328" style="stroke:#181818;stroke-width:1.0;" width="10" x="190.9517" y="67.4297"/><rect fill="#FFFFFF" height="29.1328" style="stroke:#181818;stroke-width:1.0;" width="10" x="190.9517" y="125.6953"/><rect fill="#FFFFFF" height="87.3984" style="stroke:#181818;stroke-width:1.0;" width="10" x="190.9517" y="183.9609"/><rect fill="#FFFFFF" height="87.3984" style="stroke:#181818;stroke-width:1.0;" width="10" x="190.9517" y="300.4922"/><polygon fill="#181818" points="178.9517,63.4297,188.9517,67.4297,178.9517,71.4297,182.9517,67.4297" style="stroke:#181818;stroke-width:1.0;"/><line style="stroke:#181818;stroke-width:1.0;" x1="43.2949" x2="184.9517" y1="67.4297" y2="67.4297"/><text fill="#000000" font-family="sans-serif" font-size="13" lengthAdjust="spacing" textLength="108.1704" x="50.2949" y="62.3638">getGUIDRequest</text><polygon fill="#181818" points="54.2949,92.5625,44.2949,96.5625,54.2949,100.5625,50.2949,96.5625" style="stroke:#181818;stroke-width:1.0;"/><line style="stroke:#181818;stroke-width:1.0;stroke-dasharray:2.0,2.0;" x1="48.2949" x2="194.9517" y1="96.5625" y2="96.5625"/><text fill="#000000" font-family="sans-serif" font-size="13" lengthAdjust="spacing" textLength="117.7998" x="60.2949" y="91.4966">getGUIDResponse</text><polygon fill="#181818" points="211.9517,121.6953,201.9517,125.6953,211.9517,129.6953,207.9517,125.6953" style="stroke:#181818;stroke-width:1.0;"/><line style="stroke:#181818;stroke-width:1.0;" x1="205.9517" x2="370.957" y1="125.6953" y2="125.6953"/><text fill="#000000" font-family="sans-serif" font-size="13" lengthAdjust="spacing" textLength="137.376" x="217.9517" y="120.6294">listProducersRequest</text><polygon fill="#181818" points="359.957,150.8281,369.957,154.8281,359.957,158.8281,363.957,154.8281" style="stroke:#181818;stroke-width:1.0;"/><line style="stroke:#181818;stroke-width:1.0;stroke-dasharray:2.0,2.0;" x1="195.9517" x2="365.957" y1="154.8281" y2="154.8281"/><text fill="#000000" font-family="sans-serif" font-size="13" lengthAdjust="spacing" textLength="147.0054" x="202.9517" y="149.7622">listProducersResponse</text><polygon fill="#181818" points="211.9517,179.9609,201.9517,183.9609,211.9517,187.9609,207.9517,183.9609" style="stroke:#181818;stroke-width:1.0;"/><line style="stroke:#181818;stroke-width:1.0;" x1="205.9517" x2="370.957" y1="183.9609" y2="183.9609"/><text fill="#000000" font-family="sans-serif" font-size="13" lengthAdjust="spacing" textLength="109.0273" x="217.9517" y="178.895">listFruitsRequest</text><polygon fill="#181818" points="59.2949,209.0938,49.2949,213.0938,59.2949,217.0938,55.2949,213.0938" style="stroke:#181818;stroke-width:1.0;"/><line style="stroke:#181818;stroke-width:1.0;" x1="53.2949" x2="189.9517" y1="213.0938" y2="213.0938"/><text fill="#000000" font-family="sans-serif" font-size="13" lengthAdjust="spacing" textLength="109.0273" x="65.2949" y="208.0278">listFruitsRequest</text><polygon fill="#181818" points="178.9517,238.2266,188.9517,242.2266,178.9517,246.2266,182.9517,242.2266" style="stroke:#181818;stroke-width:1.0;"/><line style="stroke:#181818;stroke-width:1.0;stroke-dasharray:2.0,2.0;" x1="43.2949" x2="184.9517" y1="242.2266" y2="242.2266"/><text fill="#000000" font-family="sans-serif" font-size="13" lengthAdjust="spacing" textLength="118.6567" x="50.2949" y="237.1606">listFruitsResponse</text><polygon fill="#181818" points="359.957,267.3594,369.957,271.3594,359.957,275.3594,363.957,271.3594" style="stroke:#181818;stroke-width:1.0;"/><line style="stroke:#181818;stroke-width:1.0;stroke-dasharray:2.0,2.0;" x1="195.9517" x2="365.957" y1="271.3594" y2="271.3594"/><text fill="#000000" font-family="sans-serif" font-size="13" lengthAdjust="spacing" textLength="118.6567" x="202.9517" y="266.2935">listFruitsResponse</text><polygon fill="#181818" points="211.9517,296.4922,201.9517,300.4922,211.9517,304.4922,207.9517,300.4922" style="stroke:#181818;stroke-width:1.0;"/><line style="stroke:#181818;stroke-width:1.0;" x1="205.9517" x2="370.957" y1="300.4922" y2="300.4922"/><text fill="#000000" font-family="sans-serif" font-size="13" lengthAdjust="spacing" textLength="107.3452" x="217.9517" y="295.4263">buyFruitRequest</text><polygon fill="#181818" points="59.2949,325.625,49.2949,329.625,59.2949,333.625,55.2949,329.625" style="stroke:#181818;stroke-width:1.0;"/><line style="stroke:#181818;stroke-width:1.0;" x1="53.2949" x2="189.9517" y1="329.625" y2="329.625"/><text fill="#000000" font-family="sans-serif" font-size="13" lengthAdjust="spacing" textLength="107.3452" x="65.2949" y="324.5591">buyFruitRequest</text><polygon fill="#181818" points="178.9517,354.7578,188.9517,358.7578,178.9517,362.7578,182.9517,358.7578" style="stroke:#181818;stroke-width:1.0;"/><line style="stroke:#181818;stroke-width:1.0;stroke-dasharray:2.0,2.0;" x1="43.2949" x2="184.9517" y1="358.7578" y2="358.7578"/><text fill="#000000" font-family="sans-serif" font-size="13" lengthAdjust="spacing" textLength="116.9746" x="50.2949" y="353.6919">buyFruitResponse</text><polygon fill="#181818" points="359.957,383.8906,369.957,387.8906,359.957,391.8906,363.957,387.8906" style="stroke:#181818;stroke-width:1.0;"/><line style="stroke:#181818;stroke-width:1.0;stroke-dasharray:2.0,2.0;" x1="195.9517" x2="365.957" y1="387.8906" y2="387.8906"/><text fill="#000000" font-family="sans-serif" font-size="13" lengthAdjust="spacing" textLength="116.9746" x="202.9517" y="382.8247">buyFruitResponse</text><!--SRC=[bOz12i8m403lUSL-81yGyQ9Kl1N11zHsaK1fDDb8ytjnazAYIKelkMHdPwSskdCj6f07g8qU_GuUIEVRvNJ5bqDBecb9lHl2y2tubM6QoGLWdtgmA3hyOSInLpZGmj4hIzC2MpB1LnNnFophImihunJbR35ixe8rYAVYbNifSs3ooC3c4eiezoKAxyupjw6lX1JgPcnZsmeu-Wy0]--></g></svg>